<svg width="56" height="80" viewBox="0 0 56 80" fill="none" xmlns="http://www.w3.org/2000/svg">
<path d="M15.75 70C15.75 68.6111 15.2396 67.4306 14.2188 66.4583C13.1979 65.4861 11.9583 65 10.5 65C9.04167 65 7.80208 65.4861 6.78125 66.4583C5.76042 67.4306 5.25 68.6111 5.25 70C5.25 71.3889 5.76042 72.5694 6.78125 73.5417C7.80208 74.5139 9.04167 75 10.5 75C11.9583 75 13.1979 74.5139 14.2188 73.5417C15.2396 72.5694 15.75 71.3889 15.75 70ZM15.75 10C15.75 8.61111 15.2396 7.43056 14.2188 6.45833C13.1979 5.48611 11.9583 5 10.5 5C9.04167 5 7.80208 5.48611 6.78125 6.45833C5.76042 7.43056 5.25 8.61111 5.25 10C5.25 11.3889 5.76042 12.5694 6.78125 13.5417C7.80208 14.5139 9.04167 15 10.5 15C11.9583 15 13.1979 14.5139 14.2188 13.5417C15.2396 12.5694 15.75 11.3889 15.75 10ZM50.75 16.6667C50.75 15.2778 50.2396 14.0972 49.2188 13.125C48.1979 12.1528 46.9583 11.6667 45.5 11.6667C44.0417 11.6667 42.8021 12.1528 41.7812 13.125C40.7604 14.0972 40.25 15.2778 40.25 16.6667C40.25 18.0556 40.7604 19.2361 41.7812 20.2083C42.8021 21.1806 44.0417 21.6667 45.5 21.6667C46.9583 21.6667 48.1979 21.1806 49.2188 20.2083C50.2396 19.2361 50.75 18.0556 50.75 16.6667ZM56 16.6667C56 18.4722 55.526 20.1476 54.5781 21.6927C53.6302 23.2378 52.3542 24.4444 50.75 25.3125C50.6771 35.2778 46.5573 42.4653 38.3906 46.875C35.9115 48.1944 32.2109 49.6007 27.2891 51.0937C22.6224 52.4826 19.5326 53.7153 18.0195 54.7917C16.5065 55.8681 15.75 57.6042 15.75 60V61.3542C17.3542 62.2222 18.6302 63.4288 19.5781 64.974C20.526 66.5191 21 68.1944 21 70C21 72.7778 19.9792 75.1389 17.9375 77.0833C15.8958 79.0278 13.4167 80 10.5 80C7.58333 80 5.10417 79.0278 3.0625 77.0833C1.02083 75.1389 0 72.7778 0 70C0 68.1944 0.473958 66.5191 1.42188 64.974C2.36979 63.4288 3.64583 62.2222 5.25 61.3542V18.6458C3.64583 17.7778 2.36979 16.5712 1.42188 15.026C0.473958 13.4809 0 11.8056 0 10C0 7.22222 1.02083 4.86111 3.0625 2.91667C5.10417 0.972222 7.58333 0 10.5 0C13.4167 0 15.8958 0.972222 17.9375 2.91667C19.9792 4.86111 21 7.22222 21 10C21 11.8056 20.526 13.4809 19.5781 15.026C18.6302 16.5712 17.3542 17.7778 15.75 18.6458V44.5312C17.7188 43.6285 20.526 42.6389 24.1719 41.5625C26.1771 40.9722 27.7721 40.4601 28.957 40.026C30.1419 39.592 31.4271 39.0538 32.8125 38.4115C34.1979 37.7691 35.2734 37.0833 36.0391 36.3542C36.8047 35.625 37.543 34.7396 38.2539 33.6979C38.9648 32.6562 39.4753 31.4497 39.7852 30.0781C40.0951 28.7066 40.25 27.1181 40.25 25.3125C38.6458 24.4444 37.3698 23.2378 36.4219 21.6927C35.474 20.1476 35 18.4722 35 16.6667C35 13.8889 36.0208 11.5278 38.0625 9.58333C40.1042 7.63889 42.5833 6.66667 45.5 6.66667C48.4167 6.66667 50.8958 7.63889 52.9375 9.58333C54.9792 11.5278 56 13.8889 56 16.6667Z" fill="white"/>
</svg>
