<svg xmlns="http://www.w3.org/2000/svg" xmlns:xlink="http://www.w3.org/1999/xlink" width="96" zoomAndPan="magnify" viewBox="0 0 72 72" height="96" preserveAspectRatio="xMidYMid meet" version="1.0"><defs><clipPath id="7992eb33f5"><path d="M 4.023438 4.742188 L 67.773438 4.742188 L 67.773438 66.992188 L 4.023438 66.992188 Z M 4.023438 4.742188 " clip-rule="nonzero"/></clipPath></defs><g clip-path="url(#7992eb33f5)"><path fill="#e4e4e7" d="M 61.539062 43.847656 C 59.71875 37.058594 57.902344 30.273438 56.128906 23.476562 C 56.113281 23.410156 56.09375 23.351562 56.074219 23.289062 L 27.835938 23.289062 C 28.644531 20.164062 29.152344 18.226562 29.683594 16.238281 L 53.800781 16.238281 C 53.953125 16.066406 53.96875 15.785156 53.851562 15.347656 C 53 12.234375 52.195312 9.109375 51.390625 5.980469 C 51.160156 5.066406 50.636719 4.765625 49.679688 4.773438 C 45.085938 4.820312 40.492188 4.796875 35.894531 4.796875 L 35.894531 4.832031 C 31.253906 4.832031 26.617188 4.839844 21.976562 4.820312 C 21.199219 4.816406 20.644531 4.921875 20.410156 5.8125 C 20.089844 7.050781 19.761719 8.285156 19.433594 9.523438 L 19.421875 9.523438 C 17.792969 15.675781 17.363281 17.300781 15.785156 23.289062 L 15.769531 23.289062 C 14.621094 27.625 13.488281 31.964844 12.328125 36.300781 C 11.054688 41.054688 9.742188 45.800781 8.457031 50.550781 C 6.976562 56.027344 5.503906 61.503906 4.023438 66.976562 L 16.179688 66.976562 C 17.191406 63.304688 18.167969 59.617188 19.15625 55.9375 C 20.992188 49.105469 22.878906 42.292969 24.621094 35.4375 C 24.933594 34.199219 25.558594 34.074219 26.539062 34.074219 C 28.828125 34.078125 31.121094 34.074219 46.789062 34.070312 C 47.191406 35.574219 47.597656 37.074219 48.019531 38.570312 C 48.332031 39.699219 47.984375 39.984375 46.941406 39.976562 C 44.273438 39.953125 41.605469 39.96875 38.933594 39.96875 L 38.933594 39.984375 C 36.222656 39.984375 33.511719 39.988281 30.796875 39.980469 C 30.101562 39.976562 29.503906 40.023438 29.277344 40.867188 C 27.9375 45.832031 26.566406 50.785156 25.226562 55.75 C 24.214844 59.488281 23.234375 63.238281 22.230469 66.980469 L 34.457031 66.980469 C 35.675781 62.289062 36.953125 57.613281 38.152344 52.914062 C 38.402344 51.933594 38.917969 51.675781 39.824219 51.683594 C 43.238281 51.710938 46.652344 51.75 50.0625 51.691406 C 51.195312 51.667969 51.679688 52.074219 51.960938 53.144531 C 53.179688 57.765625 54.511719 62.351562 55.699219 66.980469 L 67.769531 66.980469 C 65.6875 59.269531 63.605469 51.558594 61.539062 43.847656 Z M 61.539062 43.847656 " fill-opacity="1" fill-rule="nonzero"/></g></svg>